<svg version="1.2" xmlns="http://www.w3.org/2000/svg" viewBox="0 0 1500 684" width="1500" height="684">
	<title>logo (43)-svg</title>
	<style>
		.s0 { fill: #ffffff } 
	</style>
	<g id="kpn_logo">
		<g id="Layer">
			<g id="Layer">
				<path id="Layer" fill-rule="evenodd" class="s0" d="m1499 379v115.1h-67.6v-105c0-41.1-7.1-63.5-43.7-63.5-12.7 0-25.1 2.2-34.8 6.7v161.8h-67.6v-201.8c30.3-12 63.9-19.4 103.9-19.4 88.1 0 109.4 41.4 109.8 106.1zm-759.6-181.3h67.6v296.4h-67.6zm67.6 179.8l73.7-96.8h76.9l-76.9 94.2 84 119.2h-79.9zm302.2-104.3c79.6 0 118.1 40.4 118.1 112.2 0 71.4-39.2 114-113.6 114-12.7 0-23.9-0.8-38.5-3.4v81.1h-67.6v-284.8c28-11.6 65.4-19.4 101.6-19.1zm-34 57.6v113.3c6.8 2.6 19.8 4.8 30.3 4.8 36.6 0 51.9-22.4 51.9-63.5 0-42.6-19.4-61-48.9-61-12.3 0-23.9 2.3-33.3 6.4z"/>
			</g>
			<path id="Layer" class="s0" d="m639.7 353.2c0 33.3-15.4 69.5-29.9 104.7-10.9 25.8-19.1 48.9-23.2 66.1-13.8 55.7-39.6 159.6-118.8 159.6-29.5 0-60.5-15.3-97.2-47.8 13.9-4.5 26.9-10.1 39.3-17.2 22.8 17.9 41.8 26.9 57.9 26.9 48.9 0 69.5-81.9 81.8-130.8 6.7-25.8 18.7-56.1 25-71.8 13.5-31.8 26.9-64.3 26.9-90.1 0-20.1-8.5-40.3-24.2-56-15-15-43.4-32.9-93.4-32.9-8.6 0-17.2 0.4-26.2 1.5l-3 0.4-0.4-3c-1.5-10.9-3.7-21.7-6.7-31.4l-1.1-3.4 3.4-0.4c10.8-1.5 22.4-2.2 34-2.2 63.1 0 100.1 23.9 120.3 44.1 22.8 22.8 35.5 53.1 35.5 83.7zm-427.5-314.7c-23.5 0-42.2 7.5-57.5 22.8-26.5 26.2-41.5 76.6-41.5 138.3 0 29.5 9.4 69.5 25.4 109.1l1.1 3-3 1.1c-11.2 4.2-20.9 7.9-29.8 12l-3 1.1-1.2-3c-12.7-31.4-28-78.5-28-123.3 0-96.4 35.9-199.6 137.1-199.6 76.3 0 209.7 66.5 262.3 190.6q-1.6 0-3.3 0c-12 0.8-23.2 1.9-34 3.8l-3.4 0.7c-48.6-100.9-161.4-156.6-221.2-156.6zm167 552.1l3 2.9-4.1 1.9c-28.4 12.4-59 18.7-91.2 18.7-102.3 0-188.6-49.7-235-96.4-33.6-33.7-51.9-70.3-51.9-102.8 0-46 19.4-81.5 59-108 4.5 13.4 9.7 26.1 14.2 37-23.9 18.3-35.1 40.7-35.1 71 0 22 15 49.7 40.7 75.5 51.6 51.9 133 85.2 207.8 85.2 22.8 0 43.7-3.4 64.2-10.8l1.9-0.8 1.5 1.5c7.8 7.9 16.1 16.5 25 25.1zm-75.8-292c-19.8 0-29.5 8.6-29.5 25.5 0 14.5 7.4 34.7 38.1 91.5q-21.3 0.6-42.6 3.4c-35.1-54.6-44.5-78.9-44.5-104.3 0-26.5 19.1-53.1 58.3-53.1 9.7 0 19.4 1.2 27.3 3.4v33.6c-1.9 0-4.1 0-7.1 0zm-117.7 65.1c0 11.6 6.7 22 48.6 61.3-12.4 2.6-26.9 6.7-37.8 10.4-42.6-36.2-53-54.2-53-74.3 0-25.1 23.5-43 54.5-41.9 1.1 9 3 21.3 6 28.8-11.6 1.8-17.6 7.5-18.3 15.7zm153.6-65.1v-33.6c7.8-2.2 17.5-3.4 27.2-3.4 38.9 0 58.3 26.6 58.3 53.1 0 25.4-9.3 49.7-44.4 104.3q-21.3-2.8-42.6-3.4c30.6-56.8 38.1-77 38.1-91.5 0-16.9-9.7-25.5-29.5-25.5-2.7 0-4.9 0-7.1 0zm106.4 49.4c3-7.5 4.9-19.8 6-28.8 31-1.1 54.6 16.8 54.6 41.9 0 20.1-10.5 38.1-53.1 74.3-10.8-3.7-25.4-7.8-37.7-10.4 41.8-39.3 48.6-49.7 48.6-61.3-0.8-8.2-6.8-13.9-18.4-15.7zm-218.2 152.9l-11.2-37.4c37.8-11.2 74-15.7 108.4-15.7 34.4 0 71 4.5 108.3 15.7l-11.2 37.4c-33.2-10.1-65.4-14.3-96.7-14.3-31.4 0-63.6 4.2-97.6 14.3zm62.8-292.1l34.7-34.6 34.6 34.6-34.6 34.6z"/>
		</g>
	</g>
</svg>